<?xml version="1.0" standalone="no"?><!DOCTYPE svg PUBLIC "-//W3C//DTD SVG 1.1//EN" "http://www.w3.org/Graphics/SVG/1.1/DTD/svg11.dtd"><svg t="1755673393723" class="icon" viewBox="0 0 1024 1024" version="1.1" xmlns="http://www.w3.org/2000/svg" p-id="2954" xmlns:xlink="http://www.w3.org/1999/xlink" width="200" height="200"><path d="M8.704 1023.488h166.912V754.176l-166.912 0.512v268.8M288.768 529.92v493.568h160.256V530.944l-160.256-1.024M568.32 658.944v364.544h160.256v-366.08l-160.256 0.512m280.064-291.84V1024h166.912V365.056l-166.912 1.024" fill="#1afa29" p-id="2955"></path><path d="M1014.272 1.536C1012.736 0 1011.2 0 1009.664 0H714.752c-2.048 0-5.12 1.536-5.632 3.584-0.512 2.048 0 4.096 1.536 6.144l123.904 115.2-326.656 272.896L289.28 214.016 8.192 494.592v121.344L288.768 335.36l219.648 183.296L903.68 189.44l101.888 95.232c1.536 1.536 4.096 2.048 6.144 1.536 2.048-1.536 3.584-2.56 3.584-5.12V5.632c1.024-1.536 0-3.072-1.024-4.096" fill="#1afa29" p-id="2956"></path></svg>